 <svg  version="1.0" xmlns="http://www.w3.org/2000/svg"  width="300.000000pt" height="300.000000pt" viewBox="0 0 300.000000 300.000000"  preserveAspectRatio="xMidYMid meet">  <g transform="translate(0.000000,300.000000) scale(0.100000,-0.100000)" fill="#ffffff" stroke="none"> <path d="M1265 2436 c-131 -26 -241 -73 -350 -151 -62 -44 -185 -169 -185 -187 0 -6 -6 -16 -14 -22 -21 -17 -82 -133 -104 -201 -42 -125 -56 -311 -33 -430 21 -109 68 -228 107 -274 26 -31 27 -64 2 -60 -18 4 -91 -8 -238 -37 -189 -37 -262 -57 -247 -66 16 -10 65 -10 71 1 3 5 32 11 63 14 32 3 110 13 173 21 120 16 300 32 480 42 58 3 159 9 225 14 125 9 546 6 650 -4 33 -3 110 -8 170 -11 164 -7 336 -22 470 -40 66 -9 143 -19 170 -22 28 -3 53 -10 56 -16 4 -6 26 -7 55 -2 48 8 48 8 19 17 -39 11 -340 73 -430 88 -38 6 -92 15 -118 21 -75 14 -128 12 -121 -6 5 -12 -5 -14 -58 -10 -34 2 -232 7 -438 11 -346 6 -540 1 -839 -23 l-84 -6 6 23 c4 15 -5 45 -28 90 -32 64 -77 180 -70 180 2 0 -3 22 -10 48 -17 68 -18 222 -1 318 57 319 324 585 651 649 133 26 344 5 452 -45 24 -11 45 -20 48 -20 15 0 162 -98 224 -150 80 -67 82 -57 5 23 -44 45 -201 157 -220 157 -4 0 -26 9 -48 19 -109 51 -327 73 -461 47z"/> <path d="M2070 2117 c0 -5 8 -21 18 -35 45 -66 115 -259 131 -359 18 -120 8 -263 -28 -370 -16 -51 -39 -110 -51 -132 -11 -22 -20 -48 -20 -58 0 -15 4 -14 20 7 27 34 57 97 87 189 23 68 25 92 26 236 0 153 -2 164 -31 251 -17 50 -46 118 -64 151 -34 61 -88 135 -88 120z"/> <path d="M1595 2080 c-11 -5 -92 -26 -180 -46 -88 -21 -168 -44 -179 -53 -29 -25 -19 -159 17 -234 15 -30 34 -60 42 -67 11 -9 54 -2 207 36 106 26 199 52 206 57 7 6 10 17 7 26 -4 9 -16 52 -26 96 -52 211 -49 205 -94 185z m24 -48 c10 -19 38 -123 43 -162 2 -14 7 -31 11 -38 21 -32 -2 -48 -106 -71 -56 -13 -115 -27 -132 -31 -65 -18 -116 -22 -131 -10 -49 41 -79 203 -43 236 14 13 211 68 310 87 13 2 27 5 31 6 4 0 12 -7 17 -17z"/> <path d="M1085 1919 c-38 -11 -76 -27 -83 -36 -26 -34 7 -181 50 -224 14 -14 24 -13 102 5 79 19 102 35 76 51 -20 13 -42 82 -47 153 -4 44 -10 71 -17 71 -6 -1 -42 -10 -81 -20z m65 -61 c6 -24 18 -65 25 -92 8 -27 12 -52 10 -56 -7 -12 -93 -33 -109 -27 -16 6 -56 106 -56 140 1 29 23 57 46 57 10 0 26 5 34 10 28 18 39 10 50 -32z"/> <path d="M883 1826 c-24 -6 -50 -21 -58 -33 -14 -20 -14 -27 1 -72 27 -84 31 -86 105 -71 35 7 65 14 67 16 2 1 -4 17 -14 35 -9 18 -19 56 -23 83 -7 57 -13 60 -78 42z m55 -77 c7 -28 10 -55 6 -60 -3 -5 -20 -9 -38 -9 -25 0 -35 6 -44 25 -7 14 -12 33 -12 42 0 24 30 53 55 53 18 0 24 -9 33 -51z"/> <path d="M1225 1645 c-16 -8 -42 -14 -56 -15 -36 0 -54 -22 -40 -49 9 -16 4 -30 -28 -78 -78 -119 -131 -203 -131 -209 0 -4 -12 -22 -26 -41 -29 -39 -28 -67 3 -71 15 -2 27 5 39 25 9 15 37 60 62 98 68 103 122 205 110 205 -16 0 0 73 20 88 8 6 28 12 44 12 25 0 28 -3 28 -34 0 -19 3 -41 6 -50 4 -11 1 -16 -11 -16 -14 0 -15 -3 -5 -15 7 -8 22 -33 34 -54 11 -21 50 -86 86 -144 56 -92 69 -106 92 -107 15 0 29 4 32 8 4 7 -109 199 -182 307 -21 31 -27 52 -27 94 0 30 -4 55 -10 57 -5 1 -23 -4 -40 -11z"/> <path d="M1183 1478 c-4 -7 -10 -77 -11 -155 l-4 -143 31 0 31 0 0 136 c0 127 -8 174 -30 174 -5 0 -12 -6 -17 -12z"/> <path d="M90 967 c-1 -1 -2 -95 -3 -210 l-2 -207 111 0 c198 0 269 57 269 215 0 58 -4 76 -24 105 -55 79 -82 90 -234 94 -64 3 -117 3 -117 3z m130 -50 c0 -8 -9 -22 -20 -32 -18 -16 -20 -31 -20 -126 0 -112 4 -124 51 -149 26 -14 82 13 111 53 63 89 7 247 -87 247 -15 0 -24 4 -21 9 4 5 14 8 24 6 9 -2 31 -4 49 -4 37 -1 86 -39 110 -84 21 -42 20 -130 -3 -165 -43 -66 -81 -82 -192 -82 l-89 0 -5 28 c-4 22 -4 258 1 300 2 17 91 17 91 -1z m68 -53 c74 -52 65 -176 -17 -218 -52 -27 -56 -18 -56 114 l0 120 25 0 c14 0 36 -7 48 -16z"/> <path d="M595 956 c-2 -6 -10 -33 -19 -61 -9 -27 -30 -95 -47 -150 -30 -98 -42 -131 -61 -168 -14 -28 -4 -33 53 -27 50 5 54 7 60 36 3 17 9 35 12 41 5 7 91 10 129 4 4 -1 8 -18 10 -38 l3 -38 68 -3 c37 -2 67 1 67 5 0 4 -27 94 -61 198 -33 105 -62 195 -64 202 -5 15 -145 15 -150 -1z m111 -34 c14 -9 115 -313 108 -324 -11 -18 -40 -6 -56 22 -9 17 -30 35 -45 42 -39 17 -39 17 -14 35 21 14 23 22 18 64 -13 108 -76 131 -114 42 -18 -45 -16 -71 7 -101 l21 -26 -36 -20 c-19 -11 -37 -28 -41 -38 -3 -10 -10 -18 -16 -18 -14 0 -4 63 21 126 31 79 34 89 33 97 -1 4 3 7 9 7 5 0 7 5 4 11 -8 12 14 70 29 81 6 4 22 8 36 8 14 0 30 -4 36 -8z m-23 -124 c3 -24 9 -53 13 -65 6 -21 3 -23 -36 -23 l-42 0 6 33 c4 17 9 47 13 65 3 22 11 32 23 32 13 0 19 -11 23 -42z"/> <path d="M907 961 c-1 -3 -1 -97 1 -209 l3 -203 62 3 62 3 -4 83 c-2 74 -1 82 16 82 25 0 39 -11 45 -35 4 -11 15 -45 26 -75 l20 -55 77 -5 c42 -3 79 -2 81 1 2 3 -8 22 -21 42 -14 20 -25 40 -25 44 0 15 -25 63 -32 63 -20 0 -4 37 22 52 71 41 64 155 -12 194 -25 13 -66 17 -175 19 -79 2 -144 0 -146 -4z m120 -59 c-39 -40 -37 -92 3 -125 17 -14 30 -29 30 -33 0 -4 -3 -4 -7 -1 -3 4 -17 -3 -30 -15 -17 -16 -23 -32 -23 -67 0 -55 -11 -74 -36 -69 -17 3 -19 16 -22 157 -2 104 1 158 9 167 7 8 30 14 57 14 l46 0 -27 -28z m200 -4 c34 -32 30 -74 -12 -127 -19 -24 -35 -45 -35 -47 0 -2 9 -26 20 -54 26 -67 26 -80 -5 -80 -21 0 -29 10 -54 64 -16 36 -39 71 -50 78 -27 17 -27 28 2 28 27 0 87 35 88 52 0 7 2 22 4 32 2 12 -10 32 -32 54 l-37 35 45 -7 c24 -4 54 -17 66 -28z m-77 -33 c29 -35 -13 -75 -82 -75 l-38 0 0 45 0 45 54 0 c35 0 58 -5 66 -15z"/> <path d="M1339 962 c-5 -52 5 -330 13 -347 35 -77 224 -97 300 -31 36 30 39 46 41 229 l2 158 -54 -3 -53 -3 2 -125 c4 -175 4 -172 -20 -192 -28 -23 -49 -22 -79 1 -23 18 -23 20 -20 169 l4 150 -67 0 c-38 0 -68 -3 -69 -6z m93 -44 c1 -7 2 -53 4 -103 1 -49 2 -104 3 -122 1 -43 37 -82 82 -89 31 -5 42 -1 70 24 l34 30 5 128 c3 81 9 129 16 131 15 5 15 -229 1 -270 -12 -37 -41 -54 -103 -62 -68 -9 -129 8 -151 42 -22 33 -31 266 -12 289 14 17 48 18 51 2z"/> <path d="M1752 758 l1 -208 132 0 c145 0 185 9 210 46 36 55 13 154 -36 154 -28 0 -32 18 -7 31 64 32 74 87 25 143 l-32 38 -147 2 -147 3 1 -209z m138 164 c0 -2 -11 -13 -25 -24 -35 -27 -34 -80 1 -113 l27 -25 -27 -21 c-40 -31 -37 -89 7 -124 l32 -26 -55 3 -55 3 -3 155 c-1 85 0 160 3 168 3 9 20 12 50 11 25 -2 45 -5 45 -7z m133 -5 c25 -9 47 -40 47 -66 0 -4 -11 -21 -25 -37 -32 -38 -32 -56 5 -96 36 -39 38 -71 5 -103 -21 -22 -33 -25 -87 -24 -35 1 -52 4 -38 6 14 3 40 16 58 29 45 35 44 73 -5 113 l-36 30 26 12 c31 14 51 63 37 89 -5 10 -22 27 -37 38 l-28 21 25 -1 c14 0 38 -5 53 -11z m-45 -49 c32 -32 -2 -67 -64 -68 -46 0 -55 10 -47 53 5 25 9 27 52 27 26 0 52 -5 59 -12z m-4 -154 c9 -4 16 -18 16 -35 0 -24 -5 -29 -33 -34 -19 -4 -47 -5 -62 -3 -25 3 -29 7 -28 36 1 17 2 34 2 37 1 7 86 6 105 -1z"/> <path d="M2160 965 c-1 -3 -1 -96 -1 -207 l0 -203 66 0 66 0 0 205 1 205 -66 2 c-36 2 -66 0 -66 -2z m85 -45 c3 -5 6 -62 6 -127 0 -221 2 -205 -23 -201 -23 3 -23 6 -26 158 -1 85 0 160 2 167 6 15 32 17 41 3z"/> <path d="M2355 760 l0 -210 54 0 53 0 -4 103 c-2 76 -8 108 -21 127 -17 24 -17 22 -17 -84 0 -82 -3 -107 -12 -104 -10 3 -14 44 -16 149 -3 169 0 189 31 189 31 -1 47 -16 97 -90 47 -71 79 -110 91 -110 11 0 -17 55 -79 153 l-56 87 -60 0 -61 0 0 -210z"/> <path d="M2620 966 c-12 -12 7 -173 23 -196 17 -24 17 -23 16 58 -1 46 2 86 5 90 17 16 22 -28 22 -171 l-1 -152 -25 0 c-20 0 -35 16 -78 80 -70 104 -103 147 -108 142 -10 -10 33 -97 88 -180 l59 -88 50 3 50 3 0 205 0 205 -48 3 c-27 2 -51 1 -53 -2z"/> <path d="M2790 963 c-1 -2 -1 -94 -1 -205 l0 -203 68 -3 68 -3 -2 203 c-2 112 -3 206 -3 210 0 7 -129 7 -130 1z m90 -198 c0 -141 -2 -167 -16 -172 -8 -3 -20 -1 -25 4 -11 11 -15 306 -4 323 3 5 15 10 26 10 18 0 19 -8 19 -165z"/> <path d="M100 472 c-23 -19 -21 -42 4 -42 8 0 20 -7 27 -17 13 -15 11 -16 -12 -10 -30 8 -40 1 -32 -19 8 -22 62 -17 84 9 l19 22 6 -22 c5 -17 14 -23 35 -23 16 0 29 5 29 10 0 6 7 10 15 10 8 0 15 -4 15 -10 0 -5 7 -10 15 -10 8 0 12 6 9 14 -7 19 16 32 26 15 5 -7 6 -17 4 -21 -3 -4 4 -8 15 -8 24 0 25 4 10 32 -8 14 -8 23 0 31 17 17 13 33 -14 47 -21 11 -29 11 -50 0 -21 -11 -29 -11 -51 1 -24 13 -28 12 -49 -13 -13 -15 -24 -31 -26 -37 -5 -13 -49 -3 -49 11 0 5 9 12 20 15 16 4 18 8 9 19 -15 19 -32 18 -59 -4z m250 -28 c0 -8 -6 -14 -13 -14 -19 0 -27 10 -20 25 6 17 33 8 33 -11z m-82 0 c27 -8 30 -34 3 -34 -11 0 -26 -3 -34 -6 -15 -5 -31 21 -21 37 6 10 20 11 52 3z"/> <path d="M407 483 c-4 -3 -7 -30 -7 -60 l0 -53 39 0 c22 0 42 6 45 13 5 10 7 10 12 0 3 -8 25 -13 54 -13 42 0 49 3 52 22 4 31 26 34 34 4 3 -14 12 -26 19 -26 9 0 12 16 11 54 -1 51 -16 94 -16 48 0 -29 -17 -36 -30 -12 -16 30 -44 26 -36 -5 9 -35 -8 -65 -34 -58 -29 8 -28 59 2 67 18 4 20 8 10 18 -10 10 -19 10 -44 0 -21 -8 -36 -8 -42 -2 -11 11 -59 14 -69 3z m83 -33 c11 -20 -1 -60 -18 -60 -29 1 -46 44 -26 65 21 20 31 19 44 -5z"/> <path d="M746 480 c-2 -8 -4 -26 -3 -40 1 -16 -3 -25 -13 -25 -11 0 -14 9 -12 33 2 23 -1 32 -12 32 -20 0 -30 -18 -18 -33 5 -7 6 -21 2 -32 -4 -11 -5 -26 -3 -32 6 -15 33 -17 33 -3 0 6 5 10 11 10 5 0 7 -4 4 -10 -3 -5 2 -10 13 -10 15 0 18 5 15 24 -7 37 16 42 28 7 18 -50 35 -38 35 23 -1 30 -4 58 -8 62 -5 4 -8 -2 -8 -14 0 -33 -16 -35 -38 -5 -16 21 -22 24 -26 13z"/> <path d="M861 464 c-24 -31 -25 -35 -9 -69 9 -20 18 -25 49 -25 21 0 39 6 42 13 8 20 -4 70 -21 90 -21 24 -37 21 -61 -9z m47 -40 c-4 -25 -32 -24 -36 0 -4 21 18 40 31 27 5 -5 7 -17 5 -27z"/> <path d="M990 430 l0 -60 41 0 c36 0 40 2 37 23 -2 16 -9 21 -26 19 -20 -2 -23 2 -21 25 2 16 0 34 -4 41 -17 27 -27 9 -27 -48z"/> <path d="M1047 483 c-10 -17 10 -63 28 -63 8 0 17 -11 21 -25 10 -41 34 -31 34 14 0 41 16 63 30 41 5 -7 6 -28 3 -47 -4 -26 -2 -33 10 -33 11 0 17 12 19 43 4 51 32 61 34 12 1 -16 2 -36 3 -42 1 -9 19 -13 56 -13 48 0 55 2 55 20 0 11 5 20 11 20 6 0 13 -9 16 -20 3 -11 14 -20 24 -20 16 0 17 3 8 24 -8 17 -8 29 0 43 8 16 7 24 -7 35 -13 12 -43 15 -142 12 -69 -1 -128 -3 -132 -3 -5 -1 -8 -10 -8 -21 0 -27 -10 -25 -36 7 -13 16 -23 22 -27 16z m268 -53 c0 -20 -6 -26 -27 -28 -25 -3 -28 0 -28 28 0 28 3 31 28 28 21 -2 27 -8 27 -28z m63 13 c2 -8 -5 -13 -17 -13 -12 0 -21 6 -21 16 0 18 31 15 38 -3z"/> <path d="M1429 488 c0 -2 -2 -29 -4 -60 -3 -46 -1 -58 10 -58 9 0 15 10 15 26 0 31 23 28 28 -4 3 -17 10 -22 34 -22 17 0 37 8 44 18 13 16 15 16 28 -1 8 -10 21 -17 30 -15 13 3 13 7 2 33 -7 17 -18 43 -25 59 -10 23 -14 26 -26 16 -8 -7 -15 -20 -15 -29 0 -10 -7 -26 -15 -37 -13 -16 -16 -17 -24 -4 -7 9 -7 18 -1 24 13 13 13 43 -1 51 -6 4 -13 -2 -16 -14 -7 -27 -30 -27 -38 -1 -5 16 -23 28 -26 18z"/> <path d="M1620 475 c0 -8 5 -17 10 -20 6 -3 10 -24 10 -46 0 -29 4 -39 16 -39 12 0 15 9 13 35 -3 34 14 66 28 52 4 -4 6 -25 5 -47 -2 -31 1 -40 13 -40 13 0 15 10 13 57 l-3 56 -52 3 c-39 2 -53 -1 -53 -11z"/> <path d="M1760 460 c-21 -29 -21 -31 -3 -60 21 -36 48 -38 74 -7 24 28 24 39 -2 71 -27 34 -43 33 -69 -4z m53 -24 c3 -7 0 -19 -6 -25 -14 -14 -38 5 -30 25 7 18 29 18 36 0z"/> <path d="M1870 490 c-1 -3 -3 -31 -5 -62 -2 -47 0 -58 12 -58 11 0 14 7 9 25 -5 18 -2 25 9 25 8 0 17 -11 21 -25 5 -21 12 -25 40 -25 24 0 34 5 34 15 0 8 7 15 15 15 9 0 18 -7 21 -15 5 -11 22 -15 66 -15 51 0 59 2 56 18 -2 9 -14 18 -27 20 -19 3 -22 8 -18 30 6 32 -1 52 -19 52 -10 0 -14 -15 -14 -57 0 -56 0 -57 -17 -34 -9 13 -19 38 -22 55 -9 42 -30 39 -46 -7 -16 -46 -20 -51 -34 -42 -7 4 -9 22 -5 46 7 45 -10 55 -21 12 l-6 -27 -24 30 c-13 16 -25 27 -25 24z"/> <path d="M2200 470 c-23 -23 -25 -39 -8 -75 9 -21 18 -25 42 -23 21 2 32 9 34 22 3 15 0 18 -21 12 -27 -6 -46 19 -28 37 13 13 61 0 61 -16 1 -20 37 -57 57 -57 10 0 27 12 37 27 17 23 18 29 5 51 -24 43 -45 49 -72 24 l-24 -22 -18 20 c-23 25 -40 25 -65 0z m155 -45 c0 -11 -7 -21 -16 -23 -18 -3 -33 23 -23 39 10 17 39 5 39 -16z"/> <path d="M2400 474 c0 -9 9 -27 20 -41 11 -14 20 -34 20 -44 0 -28 19 -23 26 8 5 18 2 30 -8 37 -8 6 -18 21 -22 34 -8 25 -36 30 -36 6z"/> <path d="M2482 478 c-15 -15 -16 -45 -2 -53 6 -3 10 -17 10 -31 0 -15 6 -24 15 -24 17 0 21 35 5 45 -5 3 -7 19 -4 34 7 32 -6 47 -24 29z"/> <path d="M2544 478 c-4 -7 -9 -34 -10 -60 -2 -36 1 -48 12 -48 8 0 14 6 14 14 0 8 14 23 30 33 17 9 30 25 30 35 0 30 -61 51 -76 26z"/> <path d="M2657 483 c-4 -3 -7 -16 -7 -28 0 -13 -6 -28 -14 -34 -24 -20 -27 -51 -5 -51 11 0 19 7 19 16 0 10 7 14 18 12 9 -2 16 -10 15 -16 -2 -8 10 -12 32 -12 31 0 35 3 35 25 0 15 6 25 15 25 8 0 17 -11 21 -25 10 -38 36 -32 33 8 -2 18 0 38 5 45 13 22 36 -6 36 -44 0 -27 4 -34 19 -34 15 0 18 6 15 28 -3 20 2 34 16 47 11 10 20 24 20 32 0 19 -27 16 -39 -4 -9 -17 -10 -17 -28 0 -25 22 -38 22 -64 -4 l-22 -22 -17 23 c-23 30 -40 18 -33 -24 6 -36 -13 -60 -23 -29 -23 70 -31 82 -47 66z"/> </g> </svg> 